@startuml
'https://plantuml.com/class-diagram
class  api {
Init()
ShutDown()
NumMonitorDevices()
UtilizationCount()
DevPciBandwidth()
}

class  device_info {
RSMIPcieBandwidth cieBandwidth
RSMIFrequencies frequencies
go_rsmi_num_monitor_devices()
go_rsmi_dev_sku_get()
go_rsmi_dev_vendor_id_get()
go_rsmi_dev_id_get()
...
}

class  device_status {
RSMITemperatureMetric metrics
RSMIUtilizationCounter utilizationCounter
go_rsmi_dev_temp_metric_get()
go_rsmi_dev_volt_metric_get()
go_go_rsmi_dev_fan_reset()
go_rsmi_dev_fan_speed_set()
...
}

class  policy {
go_rsmi_perf_determinism_mode_set()
}

class  admin {
go_rsmi_init()
go_rsmi_shutdown()
}

class util {
errorString()
}
api <|-- admin
api <|-- device_info
api <|-- device_status
api <|-- policy

admin <|-- util
device_info <|-- util
device_status <|-- util
policy <|-- util

@enduml